<mxfile host="app.diagrams.net" agent="Mozilla/5.0 (Windows NT 10.0; Win64; x64) AppleWebKit/537.36 (KHTML, like Gecko) Chrome/140.0.0.0 Safari/537.36 Edg/140.0.0.0" version="28.2.0">
  <diagram name="ページ1" id="A8WsjzjQFhXy_4kcxdZT">
    <mxGraphModel dx="1443" dy="397" grid="0" gridSize="10" guides="1" tooltips="1" connect="1" arrows="1" fold="1" page="0" pageScale="1" pageWidth="827" pageHeight="1169" math="0" shadow="0">
      <root>
        <mxCell id="0" />
        <mxCell id="1" parent="0" />
        <mxCell id="37sQX9xScrHnDavmfPJc-1" value="乗り物" style="rounded=0;whiteSpace=wrap;html=1;" vertex="1" parent="1">
          <mxGeometry x="555" y="617" width="102" height="36" as="geometry" />
        </mxCell>
        <mxCell id="37sQX9xScrHnDavmfPJc-2" value="is a関係" style="text;html=1;align=center;verticalAlign=middle;resizable=0;points=[];autosize=1;strokeColor=none;fillColor=none;fontSize=16;" vertex="1" parent="1">
          <mxGeometry x="507.5" y="586.5" width="75" height="31" as="geometry" />
        </mxCell>
        <mxCell id="37sQX9xScrHnDavmfPJc-3" value="ドメインモデル" style="text;html=1;align=center;verticalAlign=middle;resizable=0;points=[];autosize=1;strokeColor=none;fillColor=none;fontSize=16;" vertex="1" parent="1">
          <mxGeometry x="445.5" y="517.5" width="130" height="31" as="geometry" />
        </mxCell>
        <mxCell id="37sQX9xScrHnDavmfPJc-4" value="車" style="rounded=0;whiteSpace=wrap;html=1;" vertex="1" parent="1">
          <mxGeometry x="460" y="686" width="80" height="42" as="geometry" />
        </mxCell>
        <mxCell id="37sQX9xScrHnDavmfPJc-5" value="船" style="whiteSpace=wrap;html=1;" vertex="1" parent="1">
          <mxGeometry x="564" y="686" width="91" height="48" as="geometry" />
        </mxCell>
        <mxCell id="37sQX9xScrHnDavmfPJc-6" value="飛行機" style="whiteSpace=wrap;html=1;" vertex="1" parent="1">
          <mxGeometry x="672" y="686" width="97" height="49" as="geometry" />
        </mxCell>
        <mxCell id="37sQX9xScrHnDavmfPJc-10" value="has a 関係" style="text;html=1;align=center;verticalAlign=middle;resizable=0;points=[];autosize=1;strokeColor=none;fillColor=none;fontSize=16;" vertex="1" parent="1">
          <mxGeometry x="844.5" y="586.5" width="94" height="31" as="geometry" />
        </mxCell>
        <mxCell id="37sQX9xScrHnDavmfPJc-11" value="車" style="whiteSpace=wrap;html=1;" vertex="1" parent="1">
          <mxGeometry x="928" y="624" width="91" height="34" as="geometry" />
        </mxCell>
        <mxCell id="37sQX9xScrHnDavmfPJc-12" value="エンジン" style="whiteSpace=wrap;html=1;" vertex="1" parent="1">
          <mxGeometry x="844.5" y="688" width="99" height="38" as="geometry" />
        </mxCell>
        <mxCell id="37sQX9xScrHnDavmfPJc-13" value="ボディ" style="whiteSpace=wrap;html=1;" vertex="1" parent="1">
          <mxGeometry x="995" y="679" width="101" height="43" as="geometry" />
        </mxCell>
        <mxCell id="37sQX9xScrHnDavmfPJc-14" value="ハンドル" style="whiteSpace=wrap;html=1;" vertex="1" parent="1">
          <mxGeometry x="919" y="756" width="101" height="49" as="geometry" />
        </mxCell>
        <mxCell id="37sQX9xScrHnDavmfPJc-15" value="ライト" style="whiteSpace=wrap;html=1;" vertex="1" parent="1">
          <mxGeometry x="1084" y="759" width="101" height="49" as="geometry" />
        </mxCell>
        <mxCell id="37sQX9xScrHnDavmfPJc-16" value="" style="endArrow=diamondThin;endFill=0;endSize=24;html=1;rounded=0;fontSize=12;curved=1;exitX=0.5;exitY=0;exitDx=0;exitDy=0;entryX=0.25;entryY=1;entryDx=0;entryDy=0;" edge="1" parent="1" source="37sQX9xScrHnDavmfPJc-12" target="37sQX9xScrHnDavmfPJc-11">
          <mxGeometry width="160" relative="1" as="geometry">
            <mxPoint x="939" y="583" as="sourcePoint" />
            <mxPoint x="1099" y="583" as="targetPoint" />
          </mxGeometry>
        </mxCell>
        <mxCell id="37sQX9xScrHnDavmfPJc-17" value="" style="endArrow=diamondThin;endFill=0;endSize=24;html=1;rounded=0;fontSize=12;curved=1;exitX=0.5;exitY=0;exitDx=0;exitDy=0;entryX=0.75;entryY=1;entryDx=0;entryDy=0;" edge="1" parent="1" target="37sQX9xScrHnDavmfPJc-11">
          <mxGeometry width="160" relative="1" as="geometry">
            <mxPoint x="1037" y="682" as="sourcePoint" />
            <mxPoint x="1096" y="659" as="targetPoint" />
          </mxGeometry>
        </mxCell>
        <mxCell id="37sQX9xScrHnDavmfPJc-19" value="" style="endArrow=diamondThin;endFill=0;endSize=24;html=1;rounded=0;fontSize=12;curved=1;exitX=0.446;exitY=0;exitDx=0;exitDy=0;entryX=0.317;entryY=0.977;entryDx=0;entryDy=0;exitPerimeter=0;entryPerimeter=0;" edge="1" parent="1" source="37sQX9xScrHnDavmfPJc-14" target="37sQX9xScrHnDavmfPJc-13">
          <mxGeometry width="160" relative="1" as="geometry">
            <mxPoint x="965" y="772" as="sourcePoint" />
            <mxPoint x="1024" y="749" as="targetPoint" />
          </mxGeometry>
        </mxCell>
        <mxCell id="37sQX9xScrHnDavmfPJc-20" value="" style="endArrow=diamondThin;endFill=0;endSize=24;html=1;rounded=0;fontSize=12;curved=1;exitX=0.436;exitY=0;exitDx=0;exitDy=0;entryX=0.693;entryY=1.07;entryDx=0;entryDy=0;entryPerimeter=0;exitPerimeter=0;" edge="1" parent="1" source="37sQX9xScrHnDavmfPJc-15" target="37sQX9xScrHnDavmfPJc-13">
          <mxGeometry width="160" relative="1" as="geometry">
            <mxPoint x="1108" y="759" as="sourcePoint" />
            <mxPoint x="1167" y="736" as="targetPoint" />
          </mxGeometry>
        </mxCell>
        <mxCell id="37sQX9xScrHnDavmfPJc-26" value="" style="edgeStyle=none;orthogonalLoop=1;jettySize=auto;html=1;rounded=0;fontSize=12;startSize=8;endSize=8;curved=1;endArrow=block;endFill=0;entryX=0.25;entryY=1;entryDx=0;entryDy=0;exitX=0.5;exitY=0;exitDx=0;exitDy=0;" edge="1" parent="1" source="37sQX9xScrHnDavmfPJc-4" target="37sQX9xScrHnDavmfPJc-1">
          <mxGeometry width="140" relative="1" as="geometry">
            <mxPoint x="380" y="631" as="sourcePoint" />
            <mxPoint x="520" y="631" as="targetPoint" />
            <Array as="points" />
          </mxGeometry>
        </mxCell>
        <mxCell id="37sQX9xScrHnDavmfPJc-27" value="" style="edgeStyle=none;orthogonalLoop=1;jettySize=auto;html=1;rounded=0;fontSize=12;startSize=8;endSize=8;curved=1;endArrow=block;endFill=0;entryX=0.5;entryY=1;entryDx=0;entryDy=0;exitX=0.5;exitY=0;exitDx=0;exitDy=0;" edge="1" parent="1" source="37sQX9xScrHnDavmfPJc-5" target="37sQX9xScrHnDavmfPJc-1">
          <mxGeometry width="140" relative="1" as="geometry">
            <mxPoint x="630" y="696" as="sourcePoint" />
            <mxPoint x="711" y="663" as="targetPoint" />
            <Array as="points" />
          </mxGeometry>
        </mxCell>
        <mxCell id="37sQX9xScrHnDavmfPJc-28" value="" style="edgeStyle=none;orthogonalLoop=1;jettySize=auto;html=1;rounded=0;fontSize=12;startSize=8;endSize=8;curved=1;endArrow=block;endFill=0;entryX=0.75;entryY=1;entryDx=0;entryDy=0;exitX=0.5;exitY=0;exitDx=0;exitDy=0;" edge="1" parent="1" source="37sQX9xScrHnDavmfPJc-6" target="37sQX9xScrHnDavmfPJc-1">
          <mxGeometry width="140" relative="1" as="geometry">
            <mxPoint x="691" y="686" as="sourcePoint" />
            <mxPoint x="772" y="653" as="targetPoint" />
            <Array as="points" />
          </mxGeometry>
        </mxCell>
        <mxCell id="37sQX9xScrHnDavmfPJc-30" value="金色先生" style="rounded=0;whiteSpace=wrap;html=1;" vertex="1" parent="1">
          <mxGeometry x="460" y="763" width="80" height="42" as="geometry" />
        </mxCell>
        <mxCell id="37sQX9xScrHnDavmfPJc-35" value="" style="edgeStyle=none;curved=1;rounded=0;orthogonalLoop=1;jettySize=auto;html=1;fontSize=12;startSize=8;endSize=8;exitX=0.5;exitY=0;exitDx=0;exitDy=0;endArrow=none;endFill=0;" edge="1" parent="1" source="37sQX9xScrHnDavmfPJc-31" target="37sQX9xScrHnDavmfPJc-5">
          <mxGeometry relative="1" as="geometry">
            <mxPoint x="610" y="788" as="sourcePoint" />
          </mxGeometry>
        </mxCell>
        <mxCell id="37sQX9xScrHnDavmfPJc-31" value="ほしい" style="rounded=0;whiteSpace=wrap;html=1;" vertex="1" parent="1">
          <mxGeometry x="567" y="762.5" width="85" height="42" as="geometry" />
        </mxCell>
        <mxCell id="37sQX9xScrHnDavmfPJc-32" value="" style="edgeStyle=none;orthogonalLoop=1;jettySize=auto;html=1;rounded=0;fontSize=12;startSize=8;endSize=8;curved=1;endArrow=none;endFill=0;entryX=0.5;entryY=1;entryDx=0;entryDy=0;exitX=0.5;exitY=0;exitDx=0;exitDy=0;" edge="1" parent="1" source="37sQX9xScrHnDavmfPJc-30" target="37sQX9xScrHnDavmfPJc-4">
          <mxGeometry width="140" relative="1" as="geometry">
            <mxPoint x="497" y="760" as="sourcePoint" />
            <mxPoint x="573" y="735" as="targetPoint" />
            <Array as="points" />
          </mxGeometry>
        </mxCell>
        <mxCell id="37sQX9xScrHnDavmfPJc-37" value="図書&lt;span style=&quot;background-color: transparent; color: light-dark(rgb(0, 0, 0), rgb(255, 255, 255));&quot;&gt;貸出システム&lt;/span&gt;" style="text;html=1;align=center;verticalAlign=middle;resizable=0;points=[];autosize=1;strokeColor=none;fillColor=none;fontSize=16;" vertex="1" parent="1">
          <mxGeometry x="405.5" y="856.5" width="146" height="31" as="geometry" />
        </mxCell>
        <mxCell id="37sQX9xScrHnDavmfPJc-38" value="図書カード" style="whiteSpace=wrap;html=1;" vertex="1" parent="1">
          <mxGeometry x="435" y="1016" width="120" height="60" as="geometry" />
        </mxCell>
        <mxCell id="37sQX9xScrHnDavmfPJc-39" value="図書館" style="whiteSpace=wrap;html=1;" vertex="1" parent="1">
          <mxGeometry x="431.5" y="905" width="120" height="60" as="geometry" />
        </mxCell>
        <mxCell id="37sQX9xScrHnDavmfPJc-40" value="" style="edgeStyle=none;orthogonalLoop=1;jettySize=auto;html=1;rounded=0;fontSize=12;startSize=8;endSize=8;curved=1;entryX=0.5;entryY=1;entryDx=0;entryDy=0;endArrow=diamondThin;endFill=0;" edge="1" parent="1" source="37sQX9xScrHnDavmfPJc-38" target="37sQX9xScrHnDavmfPJc-39">
          <mxGeometry width="140" relative="1" as="geometry">
            <mxPoint x="385" y="992" as="sourcePoint" />
            <mxPoint x="525" y="992" as="targetPoint" />
            <Array as="points" />
          </mxGeometry>
        </mxCell>
        <mxCell id="37sQX9xScrHnDavmfPJc-41" value="ID" style="whiteSpace=wrap;html=1;" vertex="1" parent="1">
          <mxGeometry x="368" y="1127" width="112" height="55" as="geometry" />
        </mxCell>
        <mxCell id="37sQX9xScrHnDavmfPJc-46" value="" style="edgeStyle=none;curved=1;rounded=0;orthogonalLoop=1;jettySize=auto;html=1;fontSize=12;startSize=8;endSize=8;endArrow=diamondThin;endFill=0;entryX=0.75;entryY=1;entryDx=0;entryDy=0;exitX=0.5;exitY=0;exitDx=0;exitDy=0;" edge="1" parent="1" source="37sQX9xScrHnDavmfPJc-42" target="37sQX9xScrHnDavmfPJc-38">
          <mxGeometry relative="1" as="geometry" />
        </mxCell>
        <mxCell id="37sQX9xScrHnDavmfPJc-42" value="パスワード" style="whiteSpace=wrap;html=1;" vertex="1" parent="1">
          <mxGeometry x="498" y="1127" width="112" height="55" as="geometry" />
        </mxCell>
        <mxCell id="37sQX9xScrHnDavmfPJc-43" value="住所" style="whiteSpace=wrap;html=1;" vertex="1" parent="1">
          <mxGeometry x="635" y="985" width="112" height="55" as="geometry" />
        </mxCell>
        <mxCell id="37sQX9xScrHnDavmfPJc-44" value="氏名" style="whiteSpace=wrap;html=1;" vertex="1" parent="1">
          <mxGeometry x="635" y="919" width="112" height="52" as="geometry" />
        </mxCell>
        <mxCell id="37sQX9xScrHnDavmfPJc-45" value="" style="edgeStyle=none;orthogonalLoop=1;jettySize=auto;html=1;rounded=0;fontSize=12;startSize=8;endSize=8;curved=1;entryX=0.205;entryY=0.994;entryDx=0;entryDy=0;endArrow=diamondThin;endFill=0;exitX=0.5;exitY=0;exitDx=0;exitDy=0;entryPerimeter=0;" edge="1" parent="1" source="37sQX9xScrHnDavmfPJc-41" target="37sQX9xScrHnDavmfPJc-38">
          <mxGeometry width="140" relative="1" as="geometry">
            <mxPoint x="489" y="1123" as="sourcePoint" />
            <mxPoint x="487" y="1072" as="targetPoint" />
            <Array as="points" />
          </mxGeometry>
        </mxCell>
        <mxCell id="37sQX9xScrHnDavmfPJc-47" value="" style="edgeStyle=none;curved=1;rounded=0;orthogonalLoop=1;jettySize=auto;html=1;fontSize=12;startSize=8;endSize=8;endArrow=diamondThin;endFill=0;exitX=0;exitY=0.5;exitDx=0;exitDy=0;entryX=1.015;entryY=0.403;entryDx=0;entryDy=0;entryPerimeter=0;" edge="1" parent="1" source="37sQX9xScrHnDavmfPJc-43" target="37sQX9xScrHnDavmfPJc-38">
          <mxGeometry relative="1" as="geometry">
            <mxPoint x="696" y="1176" as="sourcePoint" />
            <mxPoint x="558" y="1046" as="targetPoint" />
          </mxGeometry>
        </mxCell>
        <mxCell id="37sQX9xScrHnDavmfPJc-48" value="" style="edgeStyle=none;curved=1;rounded=0;orthogonalLoop=1;jettySize=auto;html=1;fontSize=12;startSize=8;endSize=8;endArrow=diamondThin;endFill=0;exitX=0;exitY=0.25;exitDx=0;exitDy=0;" edge="1" parent="1" source="37sQX9xScrHnDavmfPJc-44">
          <mxGeometry relative="1" as="geometry">
            <mxPoint x="842" y="1168" as="sourcePoint" />
            <mxPoint x="555" y="1031" as="targetPoint" />
          </mxGeometry>
        </mxCell>
        <mxCell id="37sQX9xScrHnDavmfPJc-50" value="電話番号" style="whiteSpace=wrap;html=1;" vertex="1" parent="1">
          <mxGeometry x="635" y="1049.3" width="112" height="54.7" as="geometry" />
        </mxCell>
        <mxCell id="37sQX9xScrHnDavmfPJc-51" value="" style="edgeStyle=none;curved=1;rounded=0;orthogonalLoop=1;jettySize=auto;html=1;fontSize=12;startSize=8;endSize=8;endArrow=diamondThin;endFill=0;exitX=0;exitY=0.5;exitDx=0;exitDy=0;entryX=1;entryY=0.75;entryDx=0;entryDy=0;" edge="1" parent="1" source="37sQX9xScrHnDavmfPJc-50" target="37sQX9xScrHnDavmfPJc-38">
          <mxGeometry relative="1" as="geometry">
            <mxPoint x="696" y="1240.3" as="sourcePoint" />
            <mxPoint x="440.2399999999998" y="1031" as="targetPoint" />
          </mxGeometry>
        </mxCell>
        <mxCell id="37sQX9xScrHnDavmfPJc-52" value="電子メール・メールアドレス" style="whiteSpace=wrap;html=1;" vertex="1" parent="1">
          <mxGeometry x="631.96" y="1114.52" width="112" height="55" as="geometry" />
        </mxCell>
        <mxCell id="37sQX9xScrHnDavmfPJc-53" value="" style="edgeStyle=none;curved=1;rounded=0;orthogonalLoop=1;jettySize=auto;html=1;fontSize=12;startSize=8;endSize=8;endArrow=diamondThin;endFill=0;exitX=0;exitY=0.5;exitDx=0;exitDy=0;entryX=1;entryY=1;entryDx=0;entryDy=0;" edge="1" parent="1" source="37sQX9xScrHnDavmfPJc-52" target="37sQX9xScrHnDavmfPJc-38">
          <mxGeometry relative="1" as="geometry">
            <mxPoint x="692.96" y="1305.52" as="sourcePoint" />
            <mxPoint x="457.99999999999994" y="1060" as="targetPoint" />
          </mxGeometry>
        </mxCell>
        <mxCell id="37sQX9xScrHnDavmfPJc-72" value="" style="edgeStyle=none;curved=1;rounded=0;orthogonalLoop=1;jettySize=auto;html=1;fontSize=12;startSize=8;endSize=8;endArrow=diamondThin;endFill=0;" edge="1" parent="1" source="37sQX9xScrHnDavmfPJc-54" target="37sQX9xScrHnDavmfPJc-69">
          <mxGeometry relative="1" as="geometry" />
        </mxCell>
        <mxCell id="37sQX9xScrHnDavmfPJc-54" value="検索" style="whiteSpace=wrap;html=1;" vertex="1" parent="1">
          <mxGeometry x="86" y="1018" width="120" height="60" as="geometry" />
        </mxCell>
        <mxCell id="37sQX9xScrHnDavmfPJc-57" value="貸し出し中" style="whiteSpace=wrap;html=1;" vertex="1" parent="1">
          <mxGeometry x="7" y="1118" width="120" height="60" as="geometry" />
        </mxCell>
        <mxCell id="37sQX9xScrHnDavmfPJc-58" value="本の棚" style="whiteSpace=wrap;html=1;" vertex="1" parent="1">
          <mxGeometry x="146" y="1118" width="87" height="64" as="geometry" />
        </mxCell>
        <mxCell id="37sQX9xScrHnDavmfPJc-59" value="" style="edgeStyle=none;curved=1;rounded=0;orthogonalLoop=1;jettySize=auto;html=1;fontSize=12;startSize=8;endSize=8;endArrow=diamondThin;endFill=0;exitX=0.5;exitY=0;exitDx=0;exitDy=0;entryX=0.25;entryY=1;entryDx=0;entryDy=0;" edge="1" parent="1" source="37sQX9xScrHnDavmfPJc-57" target="37sQX9xScrHnDavmfPJc-54">
          <mxGeometry relative="1" as="geometry">
            <mxPoint x="98" y="1089" as="sourcePoint" />
            <mxPoint x="210" y="1089" as="targetPoint" />
          </mxGeometry>
        </mxCell>
        <mxCell id="37sQX9xScrHnDavmfPJc-60" value="" style="edgeStyle=none;curved=1;rounded=0;orthogonalLoop=1;jettySize=auto;html=1;fontSize=12;startSize=8;endSize=8;endArrow=diamondThin;endFill=0;exitX=0.5;exitY=0;exitDx=0;exitDy=0;" edge="1" parent="1" source="37sQX9xScrHnDavmfPJc-58" target="37sQX9xScrHnDavmfPJc-54">
          <mxGeometry relative="1" as="geometry">
            <mxPoint x="177" y="1098" as="sourcePoint" />
            <mxPoint x="289" y="1098" as="targetPoint" />
          </mxGeometry>
        </mxCell>
        <mxCell id="37sQX9xScrHnDavmfPJc-79" value="" style="edgeStyle=none;curved=1;rounded=0;orthogonalLoop=1;jettySize=auto;html=1;fontSize=12;startSize=8;endSize=8;endArrow=diamondThin;endFill=0;" edge="1" parent="1" source="37sQX9xScrHnDavmfPJc-61" target="37sQX9xScrHnDavmfPJc-57">
          <mxGeometry relative="1" as="geometry" />
        </mxCell>
        <mxCell id="37sQX9xScrHnDavmfPJc-61" value="貸し出し予約" style="whiteSpace=wrap;html=1;" vertex="1" parent="1">
          <mxGeometry x="7" y="1230" width="120" height="60" as="geometry" />
        </mxCell>
        <mxCell id="37sQX9xScrHnDavmfPJc-67" value="" style="edgeStyle=none;curved=1;rounded=0;orthogonalLoop=1;jettySize=auto;html=1;fontSize=12;startSize=8;endSize=8;endArrow=diamondThin;endFill=0;" edge="1" parent="1" source="37sQX9xScrHnDavmfPJc-63" target="37sQX9xScrHnDavmfPJc-54">
          <mxGeometry relative="1" as="geometry" />
        </mxCell>
        <mxCell id="37sQX9xScrHnDavmfPJc-63" value="書名" style="whiteSpace=wrap;html=1;" vertex="1" parent="1">
          <mxGeometry x="-64" y="1004" width="78" height="36" as="geometry" />
        </mxCell>
        <mxCell id="37sQX9xScrHnDavmfPJc-68" value="" style="edgeStyle=none;curved=1;rounded=0;orthogonalLoop=1;jettySize=auto;html=1;fontSize=12;startSize=8;endSize=8;endArrow=diamondThin;endFill=0;" edge="1" parent="1" source="37sQX9xScrHnDavmfPJc-66" target="37sQX9xScrHnDavmfPJc-54">
          <mxGeometry relative="1" as="geometry" />
        </mxCell>
        <mxCell id="37sQX9xScrHnDavmfPJc-66" value="著者" style="whiteSpace=wrap;html=1;" vertex="1" parent="1">
          <mxGeometry x="-64" y="1056" width="78" height="36" as="geometry" />
        </mxCell>
        <mxCell id="37sQX9xScrHnDavmfPJc-70" value="" style="edgeStyle=none;curved=1;rounded=0;orthogonalLoop=1;jettySize=auto;html=1;fontSize=12;startSize=8;endSize=8;endArrow=none;endFill=0;" edge="1" parent="1" source="37sQX9xScrHnDavmfPJc-69" target="37sQX9xScrHnDavmfPJc-38">
          <mxGeometry relative="1" as="geometry" />
        </mxCell>
        <mxCell id="37sQX9xScrHnDavmfPJc-69" value="利用者用コンピュータ" style="whiteSpace=wrap;html=1;" vertex="1" parent="1">
          <mxGeometry x="240" y="1016" width="151" height="60" as="geometry" />
        </mxCell>
        <mxCell id="37sQX9xScrHnDavmfPJc-74" value="" style="edgeStyle=none;curved=1;rounded=0;orthogonalLoop=1;jettySize=auto;html=1;fontSize=12;startSize=8;endSize=8;endArrow=diamondThin;endFill=0;" edge="1" parent="1" source="37sQX9xScrHnDavmfPJc-73" target="37sQX9xScrHnDavmfPJc-69">
          <mxGeometry relative="1" as="geometry" />
        </mxCell>
        <mxCell id="37sQX9xScrHnDavmfPJc-73" value="借りている本一覧" style="whiteSpace=wrap;html=1;" vertex="1" parent="1">
          <mxGeometry x="243" y="1122" width="120" height="60" as="geometry" />
        </mxCell>
        <mxCell id="37sQX9xScrHnDavmfPJc-78" value="" style="edgeStyle=none;curved=1;rounded=0;orthogonalLoop=1;jettySize=auto;html=1;fontSize=12;startSize=8;endSize=8;endArrow=diamondThin;endFill=0;" edge="1" parent="1" source="37sQX9xScrHnDavmfPJc-77" target="37sQX9xScrHnDavmfPJc-61">
          <mxGeometry relative="1" as="geometry" />
        </mxCell>
        <mxCell id="37sQX9xScrHnDavmfPJc-77" value="貸し出し期限" style="whiteSpace=wrap;html=1;" vertex="1" parent="1">
          <mxGeometry x="4" y="1322" width="120" height="60" as="geometry" />
        </mxCell>
        <mxCell id="37sQX9xScrHnDavmfPJc-82" value="" style="edgeStyle=none;curved=1;rounded=0;orthogonalLoop=1;jettySize=auto;html=1;fontSize=12;startSize=8;endSize=8;endArrow=none;endFill=0;" edge="1" parent="1" source="37sQX9xScrHnDavmfPJc-80" target="37sQX9xScrHnDavmfPJc-81">
          <mxGeometry relative="1" as="geometry" />
        </mxCell>
        <mxCell id="37sQX9xScrHnDavmfPJc-125" style="edgeStyle=none;curved=1;rounded=0;orthogonalLoop=1;jettySize=auto;html=1;exitX=0.5;exitY=0;exitDx=0;exitDy=0;fontSize=12;startSize=8;endSize=8;entryX=0.5;entryY=1;entryDx=0;entryDy=0;endArrow=none;endFill=0;" edge="1" parent="1" source="37sQX9xScrHnDavmfPJc-80" target="37sQX9xScrHnDavmfPJc-123">
          <mxGeometry relative="1" as="geometry">
            <mxPoint x="115.46153846153834" y="1523" as="targetPoint" />
          </mxGeometry>
        </mxCell>
        <mxCell id="37sQX9xScrHnDavmfPJc-80" value="利用者" style="whiteSpace=wrap;html=1;" vertex="1" parent="1">
          <mxGeometry x="76" y="1555" width="120" height="60" as="geometry" />
        </mxCell>
        <mxCell id="37sQX9xScrHnDavmfPJc-81" value="図書" style="whiteSpace=wrap;html=1;" vertex="1" parent="1">
          <mxGeometry x="316" y="1555" width="120" height="60" as="geometry" />
        </mxCell>
        <mxCell id="37sQX9xScrHnDavmfPJc-83" value="検索" style="text;html=1;align=center;verticalAlign=middle;resizable=0;points=[];autosize=1;strokeColor=none;fillColor=none;fontSize=16;" vertex="1" parent="1">
          <mxGeometry x="225.5" y="1540.5" width="50" height="31" as="geometry" />
        </mxCell>
        <mxCell id="37sQX9xScrHnDavmfPJc-88" value="" style="edgeStyle=none;curved=1;rounded=0;orthogonalLoop=1;jettySize=auto;html=1;fontSize=12;startSize=8;endSize=8;endArrow=diamondThin;endFill=0;" edge="1" parent="1" source="37sQX9xScrHnDavmfPJc-84" target="37sQX9xScrHnDavmfPJc-86">
          <mxGeometry relative="1" as="geometry" />
        </mxCell>
        <mxCell id="37sQX9xScrHnDavmfPJc-84" value="ID" style="whiteSpace=wrap;html=1;" vertex="1" parent="1">
          <mxGeometry x="112" y="1860.5" width="92" height="48" as="geometry" />
        </mxCell>
        <mxCell id="37sQX9xScrHnDavmfPJc-87" value="" style="edgeStyle=none;curved=1;rounded=0;orthogonalLoop=1;jettySize=auto;html=1;fontSize=12;startSize=8;endSize=8;endArrow=diamondThin;endFill=0;" edge="1" parent="1" source="37sQX9xScrHnDavmfPJc-86" target="37sQX9xScrHnDavmfPJc-80">
          <mxGeometry relative="1" as="geometry" />
        </mxCell>
        <mxCell id="37sQX9xScrHnDavmfPJc-86" value="図書カード" style="whiteSpace=wrap;html=1;" vertex="1" parent="1">
          <mxGeometry x="74" y="1665" width="120" height="60" as="geometry" />
        </mxCell>
        <mxCell id="37sQX9xScrHnDavmfPJc-89" value="貸し出し予約" style="whiteSpace=wrap;html=1;" vertex="1" parent="1">
          <mxGeometry x="261" y="1733" width="120" height="60" as="geometry" />
        </mxCell>
        <mxCell id="37sQX9xScrHnDavmfPJc-91" value="" style="edgeStyle=none;curved=1;rounded=0;orthogonalLoop=1;jettySize=auto;html=1;fontSize=12;startSize=8;endSize=8;endArrow=diamondThin;endFill=0;" edge="1" parent="1" source="37sQX9xScrHnDavmfPJc-90" target="37sQX9xScrHnDavmfPJc-89">
          <mxGeometry relative="1" as="geometry" />
        </mxCell>
        <mxCell id="37sQX9xScrHnDavmfPJc-90" value="貸し出し期限" style="whiteSpace=wrap;html=1;" vertex="1" parent="1">
          <mxGeometry x="323" y="1827" width="120" height="60" as="geometry" />
        </mxCell>
        <mxCell id="37sQX9xScrHnDavmfPJc-94" value="" style="edgeStyle=none;curved=1;rounded=0;orthogonalLoop=1;jettySize=auto;html=1;fontSize=12;startSize=8;endSize=8;endArrow=diamondThin;endFill=0;" edge="1" parent="1" source="37sQX9xScrHnDavmfPJc-92" target="37sQX9xScrHnDavmfPJc-81">
          <mxGeometry relative="1" as="geometry" />
        </mxCell>
        <mxCell id="37sQX9xScrHnDavmfPJc-92" value="著名" style="whiteSpace=wrap;html=1;" vertex="1" parent="1">
          <mxGeometry x="253" y="1636" width="120" height="60" as="geometry" />
        </mxCell>
        <mxCell id="37sQX9xScrHnDavmfPJc-107" style="edgeStyle=none;curved=1;rounded=0;orthogonalLoop=1;jettySize=auto;html=1;exitX=0.5;exitY=0;exitDx=0;exitDy=0;entryX=0.75;entryY=1;entryDx=0;entryDy=0;fontSize=12;startSize=8;endSize=8;endArrow=diamondThin;endFill=0;" edge="1" parent="1" source="37sQX9xScrHnDavmfPJc-93" target="37sQX9xScrHnDavmfPJc-81">
          <mxGeometry relative="1" as="geometry" />
        </mxCell>
        <mxCell id="37sQX9xScrHnDavmfPJc-93" value="著者" style="whiteSpace=wrap;html=1;" vertex="1" parent="1">
          <mxGeometry x="495" y="1636" width="120" height="60" as="geometry" />
        </mxCell>
        <mxCell id="37sQX9xScrHnDavmfPJc-96" style="edgeStyle=none;curved=1;rounded=0;orthogonalLoop=1;jettySize=auto;html=1;exitX=0.5;exitY=0;exitDx=0;exitDy=0;entryX=0;entryY=1;entryDx=0;entryDy=0;fontSize=12;startSize=8;endSize=8;endArrow=diamondThin;endFill=0;" edge="1" parent="1" source="37sQX9xScrHnDavmfPJc-95" target="37sQX9xScrHnDavmfPJc-86">
          <mxGeometry relative="1" as="geometry" />
        </mxCell>
        <mxCell id="37sQX9xScrHnDavmfPJc-95" value="氏名" style="whiteSpace=wrap;html=1;" vertex="1" parent="1">
          <mxGeometry x="-249" y="1864" width="69" height="46" as="geometry" />
        </mxCell>
        <mxCell id="37sQX9xScrHnDavmfPJc-97" value="住所" style="whiteSpace=wrap;html=1;" vertex="1" parent="1">
          <mxGeometry x="-180" y="1865.5" width="69" height="43" as="geometry" />
        </mxCell>
        <mxCell id="37sQX9xScrHnDavmfPJc-103" style="edgeStyle=none;curved=1;rounded=0;orthogonalLoop=1;jettySize=auto;html=1;exitX=0.5;exitY=0;exitDx=0;exitDy=0;entryX=0.75;entryY=1;entryDx=0;entryDy=0;fontSize=12;startSize=8;endSize=8;endArrow=diamondThin;endFill=0;" edge="1" parent="1" source="37sQX9xScrHnDavmfPJc-98" target="37sQX9xScrHnDavmfPJc-86">
          <mxGeometry relative="1" as="geometry" />
        </mxCell>
        <mxCell id="37sQX9xScrHnDavmfPJc-98" value="パスワード" style="whiteSpace=wrap;html=1;" vertex="1" parent="1">
          <mxGeometry x="207" y="1860" width="100" height="48.5" as="geometry" />
        </mxCell>
        <mxCell id="37sQX9xScrHnDavmfPJc-100" style="edgeStyle=none;curved=1;rounded=0;orthogonalLoop=1;jettySize=auto;html=1;exitX=0.5;exitY=0;exitDx=0;exitDy=0;fontSize=12;startSize=8;endSize=8;endArrow=diamondThin;endFill=0;" edge="1" parent="1" source="37sQX9xScrHnDavmfPJc-99" target="37sQX9xScrHnDavmfPJc-86">
          <mxGeometry relative="1" as="geometry" />
        </mxCell>
        <mxCell id="37sQX9xScrHnDavmfPJc-99" value="電話番号" style="whiteSpace=wrap;html=1;" vertex="1" parent="1">
          <mxGeometry x="-111" y="1864" width="89" height="43" as="geometry" />
        </mxCell>
        <mxCell id="37sQX9xScrHnDavmfPJc-101" style="edgeStyle=none;curved=1;rounded=0;orthogonalLoop=1;jettySize=auto;html=1;exitX=0.5;exitY=0;exitDx=0;exitDy=0;entryX=0.164;entryY=0.933;entryDx=0;entryDy=0;entryPerimeter=0;fontSize=12;startSize=8;endSize=8;endArrow=diamondThin;endFill=0;" edge="1" parent="1" source="37sQX9xScrHnDavmfPJc-97" target="37sQX9xScrHnDavmfPJc-86">
          <mxGeometry relative="1" as="geometry" />
        </mxCell>
        <mxCell id="37sQX9xScrHnDavmfPJc-106" style="edgeStyle=none;curved=1;rounded=0;orthogonalLoop=1;jettySize=auto;html=1;exitX=0.5;exitY=0;exitDx=0;exitDy=0;fontSize=12;startSize=8;endSize=8;endArrow=diamondThin;endFill=0;" edge="1" parent="1" source="37sQX9xScrHnDavmfPJc-104" target="37sQX9xScrHnDavmfPJc-86">
          <mxGeometry relative="1" as="geometry" />
        </mxCell>
        <mxCell id="37sQX9xScrHnDavmfPJc-104" value="電子メールアドレス" style="whiteSpace=wrap;html=1;" vertex="1" parent="1">
          <mxGeometry x="-22" y="1867" width="131" height="40" as="geometry" />
        </mxCell>
        <mxCell id="37sQX9xScrHnDavmfPJc-112" style="edgeStyle=none;curved=1;rounded=0;orthogonalLoop=1;jettySize=auto;html=1;exitX=0.5;exitY=0;exitDx=0;exitDy=0;entryX=1;entryY=1;entryDx=0;entryDy=0;fontSize=12;startSize=8;endSize=8;endArrow=diamondThin;endFill=0;" edge="1" parent="1" source="37sQX9xScrHnDavmfPJc-108" target="37sQX9xScrHnDavmfPJc-81">
          <mxGeometry relative="1" as="geometry" />
        </mxCell>
        <mxCell id="37sQX9xScrHnDavmfPJc-108" value="貸し出し中か" style="whiteSpace=wrap;html=1;" vertex="1" parent="1">
          <mxGeometry x="617" y="1636" width="120" height="60" as="geometry" />
        </mxCell>
        <mxCell id="37sQX9xScrHnDavmfPJc-109" style="edgeStyle=none;curved=1;rounded=0;orthogonalLoop=1;jettySize=auto;html=1;exitX=0.5;exitY=1;exitDx=0;exitDy=0;fontSize=12;startSize=8;endSize=8;" edge="1" parent="1" source="37sQX9xScrHnDavmfPJc-108" target="37sQX9xScrHnDavmfPJc-108">
          <mxGeometry relative="1" as="geometry" />
        </mxCell>
        <mxCell id="37sQX9xScrHnDavmfPJc-110" value="どこの棚にあるか" style="whiteSpace=wrap;html=1;" vertex="1" parent="1">
          <mxGeometry x="373" y="1636" width="120" height="60" as="geometry" />
        </mxCell>
        <mxCell id="37sQX9xScrHnDavmfPJc-111" style="edgeStyle=none;curved=1;rounded=0;orthogonalLoop=1;jettySize=auto;html=1;exitX=0.5;exitY=0;exitDx=0;exitDy=0;entryX=0.625;entryY=0.967;entryDx=0;entryDy=0;entryPerimeter=0;fontSize=12;startSize=8;endSize=8;endArrow=diamondThin;endFill=0;" edge="1" parent="1" source="37sQX9xScrHnDavmfPJc-110" target="37sQX9xScrHnDavmfPJc-81">
          <mxGeometry relative="1" as="geometry" />
        </mxCell>
        <mxCell id="37sQX9xScrHnDavmfPJc-117" style="edgeStyle=none;curved=1;rounded=0;orthogonalLoop=1;jettySize=auto;html=1;exitX=1;exitY=0.5;exitDx=0;exitDy=0;entryX=0;entryY=0.5;entryDx=0;entryDy=0;fontSize=12;startSize=8;endSize=8;" edge="1" parent="1" source="37sQX9xScrHnDavmfPJc-113" target="37sQX9xScrHnDavmfPJc-86">
          <mxGeometry relative="1" as="geometry" />
        </mxCell>
        <mxCell id="37sQX9xScrHnDavmfPJc-113" value="借りている本" style="whiteSpace=wrap;html=1;" vertex="1" parent="1">
          <mxGeometry x="-289" y="1668" width="120" height="60" as="geometry" />
        </mxCell>
        <mxCell id="37sQX9xScrHnDavmfPJc-114" value="貸し出し期限" style="whiteSpace=wrap;html=1;" vertex="1" parent="1">
          <mxGeometry x="-306" y="1777" width="120" height="60" as="geometry" />
        </mxCell>
        <mxCell id="37sQX9xScrHnDavmfPJc-116" style="edgeStyle=none;curved=1;rounded=0;orthogonalLoop=1;jettySize=auto;html=1;exitX=0.5;exitY=0;exitDx=0;exitDy=0;entryX=0.344;entryY=0.994;entryDx=0;entryDy=0;entryPerimeter=0;fontSize=12;startSize=8;endSize=8;endArrow=diamondThin;endFill=0;" edge="1" parent="1" source="37sQX9xScrHnDavmfPJc-114" target="37sQX9xScrHnDavmfPJc-113">
          <mxGeometry relative="1" as="geometry" />
        </mxCell>
        <mxCell id="37sQX9xScrHnDavmfPJc-121" style="edgeStyle=none;curved=1;rounded=0;orthogonalLoop=1;jettySize=auto;html=1;exitX=0.5;exitY=0;exitDx=0;exitDy=0;entryX=0;entryY=1;entryDx=0;entryDy=0;fontSize=12;startSize=8;endSize=8;endArrow=diamondThin;endFill=0;" edge="1" parent="1" source="37sQX9xScrHnDavmfPJc-118" target="37sQX9xScrHnDavmfPJc-113">
          <mxGeometry relative="1" as="geometry" />
        </mxCell>
        <mxCell id="37sQX9xScrHnDavmfPJc-118" value="著名" style="whiteSpace=wrap;html=1;" vertex="1" parent="1">
          <mxGeometry x="-551" y="1777" width="120" height="60" as="geometry" />
        </mxCell>
        <mxCell id="37sQX9xScrHnDavmfPJc-120" style="edgeStyle=none;curved=1;rounded=0;orthogonalLoop=1;jettySize=auto;html=1;exitX=0.5;exitY=0;exitDx=0;exitDy=0;fontSize=12;startSize=8;endSize=8;endArrow=diamondThin;endFill=0;" edge="1" parent="1" source="37sQX9xScrHnDavmfPJc-119" target="37sQX9xScrHnDavmfPJc-113">
          <mxGeometry relative="1" as="geometry" />
        </mxCell>
        <mxCell id="37sQX9xScrHnDavmfPJc-119" value="著者" style="whiteSpace=wrap;html=1;" vertex="1" parent="1">
          <mxGeometry x="-426" y="1777" width="120" height="60" as="geometry" />
        </mxCell>
        <mxCell id="37sQX9xScrHnDavmfPJc-124" value="" style="edgeStyle=none;curved=1;rounded=0;orthogonalLoop=1;jettySize=auto;html=1;fontSize=12;startSize=8;endSize=8;endArrow=diamondThin;endFill=0;" edge="1" parent="1" source="37sQX9xScrHnDavmfPJc-122" target="37sQX9xScrHnDavmfPJc-123">
          <mxGeometry relative="1" as="geometry" />
        </mxCell>
        <mxCell id="37sQX9xScrHnDavmfPJc-122" value="必要事項" style="whiteSpace=wrap;html=1;" vertex="1" parent="1">
          <mxGeometry x="-257" y="1410" width="120" height="60" as="geometry" />
        </mxCell>
        <mxCell id="37sQX9xScrHnDavmfPJc-123" value="貸し出し予約" style="whiteSpace=wrap;html=1;" vertex="1" parent="1">
          <mxGeometry x="-64" y="1410" width="120" height="60" as="geometry" />
        </mxCell>
      </root>
    </mxGraphModel>
  </diagram>
</mxfile>
